<svg width="33" height="33" xmlns="http://www.w3.org/2000/svg"><g fill="#FFF" fill-rule="nonzero"><path d="M16.5 2.973c4.406 0 4.927.017 6.667.096 1.61.074 2.483.342 3.064.568a5.112 5.112 0 0 1 1.897 1.235c.548.532.97 1.18 1.235 1.897.226.581.494 1.455.568 3.064.08 1.74.096 2.261.096 6.667s-.017 4.928-.096 6.668c-.074 1.609-.342 2.482-.568 3.064a5.464 5.464 0 0 1-3.132 3.131c-.581.226-1.455.495-3.064.568-1.74.08-2.261.096-6.667.096s-4.928-.016-6.668-.096c-1.608-.073-2.482-.342-3.063-.568A5.112 5.112 0 0 1 4.87 28.13a5.112 5.112 0 0 1-1.234-1.897c-.226-.582-.495-1.455-.568-3.064-.08-1.74-.096-2.262-.096-6.668 0-4.406.017-4.927.096-6.667.073-1.61.342-2.483.568-3.064a5.112 5.112 0 0 1 1.235-1.897 5.112 5.112 0 0 1 1.897-1.235c.581-.226 1.455-.494 3.064-.568 1.74-.08 2.261-.096 6.667-.096zM16.5 0c-4.481 0-5.043.019-6.803.1-1.756.08-2.955.358-4.005.766A8.088 8.088 0 0 0 2.77 2.77 8.088 8.088 0 0 0 .866 5.692C.458 6.742.179 7.94.1 9.697.019 11.457 0 12.02 0 16.5s.019 5.043.1 6.803c.08 1.756.359 2.956.767 4.005a8.088 8.088 0 0 0 1.903 2.923 8.088 8.088 0 0 0 2.922 1.903c1.05.408 2.25.687 4.005.767 1.76.08 2.322.099 6.803.099s5.043-.019 6.803-.1c1.756-.08 2.956-.358 4.005-.766a8.437 8.437 0 0 0 4.826-4.826c.408-1.05.687-2.249.767-4.005.08-1.76.099-2.322.099-6.803s-.019-5.043-.1-6.803c-.08-1.756-.358-2.956-.766-4.005a8.088 8.088 0 0 0-1.903-2.923A8.088 8.088 0 0 0 27.308.866C26.258.458 25.059.179 23.303.1 21.543.019 20.98 0 16.5 0z"/><path d="M16.5 8a8.5 8.5 0 1 0 0 17 8.5 8.5 0 0 0 0-17zm0 14.017a5.517 5.517 0 1 1 0-11.034 5.517 5.517 0 0 1 0 11.034z"/><circle cx="25" cy="8" r="2"/></g></svg>
