<svg width="512" height="512" xmlns="http://www.w3.org/2000/svg" xmlns:xlink="http://www.w3.org/1999/xlink">
  <defs>
    <path id="substructure" d="M256.5 510C396.5042 510 510 396.5042 510 256.5c0-18.2325-3.477-28.4548-9.485-34.1475-18.7281-17.7451-166.4407-159.9093-206.191-200.7928C283.139 10.0557 270.76 3 256.5 3 116.4958 3 3 116.4958 3 256.5S116.4958 510 256.5 510z"/>
    <path id="colored-background" d="M256.5 510C396.5042 510 510 396.5042 510 256.5c0-75.0664-58.9407-14.3505-110.7883-60.7674C354.3598 155.5786 321.4377 3 256.5 3 116.4958 3 3 116.4958 3 256.5S116.4958 510 256.5 510z"/>
    <path id="letters" d="M275.9694 293.335c0 10.9958-2.8217 20.8752-8.4652 29.6386-5.6435 8.7635-13.9026 15.6253-24.7776 20.5858-10.875 4.9604-23.7682 7.4406-38.6801 7.4406-17.8779 0-32.6248-3.3896-44.2413-10.1689-8.2386-4.8777-14.9324-11.3882-20.0815-19.5316C134.5745 313.156 132 305.24 132 297.5515c0-4.4645 1.5447-8.288 4.6342-11.471s7.0234-4.7744 11.8018-4.7744c3.8721 0 7.147 1.24 9.8245 3.7203 2.6776 2.4802 4.9637 6.1592 6.8586 11.037 2.3068 5.7871 4.799 10.6235 7.4766 14.5092 2.6775 3.8856 6.4466 7.0892 11.3074 9.6108 4.8608 2.5215 11.2456 3.7823 19.1547 3.7823 10.875 0 19.7108-2.5422 26.5077-7.6267 6.7969-5.0844 10.1953-11.4296 10.1953-19.0356 0-6.0352-1.8331-10.9335-5.4993-14.6952-3.6662-3.7617-8.4033-6.6346-14.2116-8.6188-5.8082-1.9841-13.573-4.0923-23.2946-6.3245-13.017-3.059-23.9124-6.6345-32.6866-10.7269-8.7741-4.0924-15.7357-9.6728-20.8848-16.7414-5.1492-7.0687-7.7237-15.8527-7.7237-26.3523 0-10.0035 2.7187-18.8909 8.1562-26.6622 5.4375-7.7714 13.3053-13.7445 23.6036-17.9196 10.2983-4.175 22.4089-6.2625 36.3322-6.2625 11.1221 0 20.7406 1.3848 28.8556 4.1544 8.115 2.7695 14.85 6.4485 20.2052 11.0369 5.355 4.5884 9.2684 9.4041 11.74 14.4472 2.4715 5.0431 3.7073 9.9622 3.7073 14.7573 0 4.3817-1.5447 8.3293-4.6342 11.843-3.0895 3.5136-6.941 5.2704-11.5546 5.2704-4.2017 0-7.3941-1.054-9.5774-3.1622-2.1832-2.1082-4.5518-5.5598-7.1058-10.355-3.2954-6.8619-7.2499-12.215-11.8635-16.0593-4.6137-3.8443-12.0283-5.7665-22.2442-5.7665-9.4745 0-17.1157 2.0875-22.9239 6.2626-5.8082 4.175-8.7123 9.1974-8.7123 15.0672 0 3.6377.9886 6.7793 2.9659 9.4248 1.9773 2.6456 4.696 4.9191 8.1562 6.8206 3.4602 1.9015 6.9616 3.3896 10.5042 4.4644 3.5426 1.0748 9.392 2.6456 17.5482 4.7124 10.2159 2.3976 19.4636 5.043 27.7434 7.9367 8.2799 2.8936 15.3238 6.4072 21.132 10.5409 5.8082 4.1337 10.3394 9.3627 13.5937 15.6873 3.2542 6.3246 4.8814 14.0752 4.8814 23.252zm30.6475-77.0105h3.7074v-20.3377c0-5.4565.1441-9.7348.4325-12.835.2883-3.1004 1.0916-5.7666 2.4098-7.9988 1.3182-2.3148 3.213-4.1956 5.6846-5.6424 2.4716-1.4468 5.2315-2.1702 8.2798-2.1702 4.284 0 8.1562 1.612 11.6164 4.8364 2.3068 2.1495 3.7692 4.7744 4.387 7.8747.618 3.1002.9269 7.5026.9269 13.207v23.066h12.3579c4.7784 0 8.424 1.1368 10.9367 3.4103 2.5128 2.2736 3.7692 5.1878 3.7692 8.7428 0 4.547-1.792 7.73-5.3757 9.5488-3.5838 1.8188-8.7123 2.7282-15.3856 2.7282h-6.3025v62.2533c0 5.2912.1854 9.3628.5561 12.215.3707 2.8523 1.3594 5.1672 2.9659 6.9446 1.6065 1.7775 4.2223 2.6663 7.8472 2.6663 1.9773 0 4.6548-.3514 8.0327-1.0541 3.3778-.7027 6.0141-1.0541 7.909-1.0541 2.7188 0 5.1697 1.0954 7.353 3.2863 2.1832 2.1908 3.2748 4.8984 3.2748 8.1227 0 5.4565-2.9659 9.6314-8.8977 12.525-5.9318 2.8936-14.4586 4.3404-25.5808 4.3404-10.5454 0-18.5368-1.7775-23.9743-5.3325-5.4375-3.555-9.0006-8.474-10.6896-14.7572-1.6889-6.2832-2.5333-14.6745-2.5333-25.1742v-64.9815h-4.4489c-4.8608 0-8.568-1.1574-11.122-3.4723-2.554-2.3149-3.831-5.2497-3.831-8.8047 0-3.555 1.3388-6.4692 4.0163-8.7428 2.6776-2.2735 6.5703-3.4103 11.6782-3.4103z"/>
  </defs>
  <g fill-rule="evenodd">
    <use fill="#EDECEC" xlink:href="#substructure"/>
    <use xlink:href="#colored-background"/>
    <use fill="#FFF" xlink:href="#letters"/>
  </g>
</svg>
