<svg width="37" height="30" xmlns="http://www.w3.org/2000/svg"><g stroke="#FFF" fill="none" fill-rule="evenodd"><path d="M10.17 17.426s-5.005-1.49-8.01-2.37c-2.737-.992-.245-2.212.938-2.607C4.281 12.055 32.176 1.79 33.512 1.304c1.394-.615 3.102-.052 2.303 2.763-.689 3.024-4.706 21.167-5.277 23.528-.571 2.361-2.878 1.014-2.878 1.014l-12.982-9.102-4.508-2.081z" stroke-width="1.5"/><path d="M14.14 27.314s.67.083 1.378-.548c.708-.631 4.104-3.793 4.104-3.793" stroke-width="1.5"/><path d="M10.173 17.428l4.513 2.086-.545 7.8s-.768.125-.975-.535c-.206-.66-2.993-9.351-2.993-9.351z" stroke-width="1.5" fill="#FFF" fill-rule="nonzero" stroke-linejoin="bevel"/><path d="M10.173 17.428S30.087 5.954 28.91 6.888c-1.178.936-14.223 12.626-14.223 12.626l-4.513-2.086z" stroke-width="1.45" fill="#FFF" fill-rule="nonzero" stroke-linejoin="bevel"/></g></svg>
